<svg width="225" height="233" viewBox="0 0 225 233" fill="none" xmlns="http://www.w3.org/2000/svg">
  <defs>
    <linearGradient id="tailwind-gradient" x1="0%" y1="0%" x2="100%" y2="0%">
      <stop offset="0%" stop-color="#3b82f6" />
      <stop offset="50%" stop-color="#2563eb" />
      <stop offset="100%" stop-color="#1d4ed8" />
    </linearGradient>
  </defs>
  <path d="M100.448 108.461C92.9294 108.461 85.1927 108.16 77.4832 108.557C72.1385 108.83 70.8263 106.725 71.0177 101.722C71.6328 84.8407 88.856 64.5556 105.478 61.5893C114.103 60.0311 115.429 61.1519 115.443 69.9959C115.443 75.4636 115.593 81.0133 115.443 86.5083C115.306 90.3494 116.81 91.607 120.623 91.771C133.759 92.2904 133.65 92.4681 137.778 105.358C138.202 106.657 140.676 108.092 142.248 108.092C149.351 108.488 156.47 108.488 163.572 108.092C169.723 107.655 172.074 110.621 170.325 115.651C167.591 123.743 164.761 132.246 159.909 139.135C152.705 149.359 142.973 157.069 129.495 158.067C125.12 158.395 123.22 156.973 123.426 152.312C123.742 145.667 123.71 139.01 123.33 132.369C123.234 130.769 121.307 128.268 119.872 127.94C105.163 125.206 103.332 123.525 100.448 108.461Z" fill="url(#tailwind-gradient)"/>
  <path d="M104.927 133.374C105.077 139.019 97.2586 152.511 95.1672 150.857C89.6811 146.811 84.8812 141.909 80.9512 136.34C78.9828 133.387 90.1916 125.227 96.7802 125.158C101.906 125.131 104.667 128.138 104.927 133.374Z" fill="url(#tailwind-gradient)"/>
  <path d="M147.536 67.4961C150.927 71.2081 154.121 75.0955 157.104 79.1423C157.61 79.8804 155.642 83.243 154.097 84.2682C150.66 86.3015 147.104 88.1274 143.449 89.7359C139.211 91.8957 134.031 89.7359 135.042 85.6352C136.409 79.8667 139.867 74.5767 142.642 69.2321C142.998 68.4529 144.665 68.4256 147.536 67.4961Z" fill="url(#tailwind-gradient)"/>
  <path d="M155.412 102.941C153.136 103.092 150.853 103.092 148.577 102.941C146.711 102.556 144.882 102.012 143.109 101.314C143.902 99.0998 144.094 96.1883 145.638 94.8213C148.998 91.7808 152.795 89.2605 156.902 87.3443C158.843 86.4831 163.34 87.0572 163.955 88.3148C165.671 92.3593 166.764 96.641 167.195 101.014C167.195 101.369 163.094 102.517 160.838 102.927C159.033 103.088 157.218 103.093 155.412 102.941Z" fill="url(#tailwind-gradient)"/>
  <path d="M111.79 158.089C104.204 158.089 102.837 156.585 104.655 150.01C106.081 144.979 107.872 140.059 110.013 135.288C110.519 134.14 112.979 133.17 114.401 133.347C115.178 133.522 115.899 133.887 116.501 134.41C117.102 134.932 117.564 135.596 117.846 136.341C118.324 141.494 118.187 146.702 118.351 151.896C118.515 157.091 116.219 159.086 111.79 158.089Z" fill="url(#tailwind-gradient)"/>
  <path d="M96.3607 116.103C94.5992 118.079 92.6791 119.907 90.6196 121.57C88.2211 123.313 85.5644 124.669 82.7462 125.589C80.149 126.368 75.8432 127.393 74.818 126.177C72.7129 123.689 72.0841 119.821 71.4007 116.403C71.264 115.788 73.4374 113.957 74.5856 113.915C81.4202 113.669 88.2549 113.792 95.0895 113.792L96.3607 116.103Z" fill="url(#tailwind-gradient)"/>
  <path d="M123.474 83.1787C123.474 76.9456 123.256 70.8764 123.652 64.8893C123.734 63.6591 126.017 61.8547 127.507 61.5677C130.389 61.2506 133.295 61.2003 136.187 61.4173C136.515 71.0815 130.582 81.6614 123.474 83.1787Z" fill="url(#tailwind-gradient)"/>
  <path d="M120.074 24.0848C110.48 24.1387 104.062 25.0126 97.6681 26.3899C91.6922 27.684 85.8758 29.6291 80.3228 32.1905C73.4924 35.353 67.0829 39.3565 61.2427 44.1082C54.083 49.8834 47.8272 56.6994 42.6835 64.3294C42.1088 65.1817 41.5628 65.4981 40.6325 64.9299C39.7956 64.4229 39.5944 63.9086 40.1835 62.9988C43.5201 57.9655 47.3514 53.2792 51.6201 49.0097C58.038 42.4901 65.3707 36.9417 73.3869 32.5393C79.8128 28.9863 86.6482 26.4259 93.6954 24.4444C100.204 22.5996 106.885 21.8731 113.616 21.5135C124.999 20.9058 136.033 22.7362 146.827 26.2641C158.017 29.9326 168.368 35.7875 177.282 43.4896C188.32 52.9403 196.646 64.4013 202.551 77.6531C203.216 79.1455 203.693 80.7243 204.279 82.2526C204.516 82.8712 204.771 83.4537 203.844 83.7091C203.054 83.9284 202.203 84.4283 201.718 83.2416C200.913 81.2745 200.137 79.2858 199.3 77.3403C196.65 71.1477 193.072 65.4981 189.132 60.0787C185.054 54.5263 180.319 49.4896 175.03 45.0791C168.109 39.1676 160.269 34.43 151.819 31.0541C146.41 28.9144 140.961 26.9689 135.246 25.8685C129.23 24.7069 123.156 24.0344 120.074 24.0848Z" fill="url(#tailwind-gradient)"/>
  <path d="M15.6624 83.4837C14.0245 83.775 13.8665 83.5161 14.4555 81.4915C16.2192 75.2989 18.834 69.4695 21.7614 63.7516C24.441 58.5228 27.6845 53.6824 31.1686 48.9498C34.8826 43.9152 38.8804 39.1287 43.5139 34.9248C47.4343 31.3644 51.5782 28.0588 55.9203 25.0282C60.6025 21.7587 65.5324 18.8598 70.665 16.3579C76.1269 13.6337 81.8288 11.421 87.6977 9.74813C91.5446 8.69086 95.5244 8.12986 99.436 7.29196C105.136 6.06926 110.93 5.78517 116.72 5.72043C120.65 5.67728 124.59 6.02611 128.512 6.33897C131.278 6.56194 134.047 6.91436 136.774 7.39625C139.647 7.9105 142.521 8.53982 145.362 9.31659C148.745 10.2444 152.15 11.1722 155.394 12.4776C159.464 14.1103 163.415 16.0738 167.348 18.0049C169.783 19.2096 172.111 20.6445 174.46 22.0218C175.02 22.3491 175.828 22.6871 175.214 23.6473C174.783 24.3198 174.37 24.4852 173.587 24.05C169.295 21.673 165.081 19.1017 160.617 17.0987C156.085 15.1201 151.441 13.409 146.709 11.9742C143.063 10.8731 139.357 9.981 135.61 9.30221C132.795 8.7703 129.947 8.4279 127.086 8.2773C122.446 8.01838 117.79 7.84217 113.146 7.87813C110.273 7.89971 107.428 8.34563 104.576 8.67288C102.256 8.9354 99.9388 9.24107 97.6436 9.64384C95.3484 10.0466 93.1573 10.471 90.9663 11.0823C87.7587 11.9777 84.5835 12.9883 81.4298 14.0599C75.3236 16.1457 69.5766 19.0478 63.9661 22.2735C54.5302 27.7145 46.2832 34.6192 38.9809 42.653C31.6301 50.7131 25.6285 59.9095 21.2083 69.8867C19.2399 74.2956 17.541 78.8483 15.6624 83.4837Z" fill="#D7D9D8"/>
  <path d="M116.06 38.9965C112.525 39.4172 107.913 39.7157 103.416 40.5644C94.742 42.2445 86.4214 45.4074 78.8191 49.9144C78.1797 50.274 77.2997 51.0364 76.9154 49.6159C76.8823 49.4348 76.8928 49.2483 76.9458 49.072C76.9989 48.8957 77.0931 48.7345 77.2207 48.6018C81.8168 45.5389 86.8009 43.1044 92.0408 41.3628C95.2722 40.254 98.5686 39.3448 101.911 38.6405C106.358 37.7234 110.851 37.0078 115.428 37.1121C117.285 37.1553 119.16 37.015 121.002 37.1912C124.637 37.5508 128.29 37.8709 131.868 38.5542C135.507 39.2477 139.099 40.1726 142.622 41.3232C149.152 43.4809 155.211 46.6959 160.851 50.5617C166.451 54.3645 171.49 58.9355 175.822 64.1408C178.052 66.8451 179.816 69.9306 181.856 72.7932C182.405 73.5663 182.143 74.095 181.543 74.4258C181.342 74.5373 180.638 74.0662 180.394 73.7066C176.518 68.0211 172.183 62.7419 167.018 58.1712C162.338 54.0032 157.156 50.4359 151.594 47.5517C146.85 45.1008 141.862 43.1531 136.713 41.7404C130.284 39.9746 123.728 39.3561 116.06 38.9965Z" fill="#D7D9D8"/>
  <path d="M7.30336 76.8725C5.92408 76.6927 5.8235 76.0454 6.17192 75.0457C9.32999 66.143 13.5345 57.6479 18.6968 49.7395C24.0036 41.4941 30.3312 33.9541 37.5291 27.2995C44.4255 20.9415 51.8356 15.2991 60.0789 10.8327C64.6335 8.36933 69.3711 6.244 73.94 4C75.3409 5.39171 75.2367 5.93473 73.7281 6.51731C65.0782 9.95648 56.9132 14.5105 49.4398 20.064C42.6374 25.0369 36.3887 30.7275 30.8015 37.0379C24.4868 44.1682 19.1037 52.0736 14.7817 60.564C12.2961 65.4727 10.2487 70.5972 7.993 75.6247C7.79904 76.0562 7.53324 76.4554 7.30336 76.8725Z" fill="#D7D9D8"/>
  <path d="M218.503 75.565C218.223 75.7376 217.889 76.108 217.551 76.1116C217.351 76.1011 217.155 76.0444 216.98 75.9458C216.805 75.8473 216.655 75.7095 216.542 75.5434C215.152 72.6161 213.999 69.563 212.436 66.7364C209.94 62.2124 207.347 57.7172 204.477 53.4306C201.991 49.7158 199.046 46.303 196.356 42.7213C196.133 42.4228 196.111 41.5885 196.323 41.4266C196.751 41.0958 197.325 40.3981 197.983 41.29C201.244 45.7097 204.653 50.0215 207.763 54.5418C209.987 57.8007 212.003 61.1962 213.801 64.7082C215.533 68.0706 216.88 71.6308 218.395 75.1083C218.428 75.1802 218.435 75.2701 218.503 75.565Z" fill="#D7D9D8"/>
  <path d="M195.866 20.3228C195.866 21.1211 195.902 21.9231 195.866 22.7178C195.787 24.0808 195.999 25.1812 197.116 26.2457C199.292 28.3242 197.866 33.1503 194.72 34.3586C192.295 35.29 189.77 34.7002 188.283 32.7583C187.499 31.7876 187.074 30.5756 187.08 29.3272C187.086 28.0788 187.522 26.8709 188.316 25.9076C189.393 24.6166 189.681 23.3723 189.454 21.6714C189.247 19.625 189.292 17.561 189.587 15.5255C189.694 14.7697 190.086 14.0836 190.683 13.6086C191.279 13.1336 192.035 12.9058 192.795 12.9723C193.596 13.0259 194.35 13.3698 194.915 13.9397C195.481 14.5096 195.821 15.2664 195.869 16.0685C195.941 17.4818 195.869 18.9059 195.869 20.3228H195.866ZM194.731 20.481H194.619C194.619 19.0605 194.619 17.6437 194.619 16.2232C194.619 15.04 193.901 14.4251 192.823 14.2848C191.746 14.1446 191.028 14.6948 190.733 15.7233C190.578 16.2766 190.504 16.8496 190.514 17.4243C190.514 19.5496 190.701 21.6786 190.582 23.7967C190.526 24.7925 190.148 25.7429 189.505 26.5046C188.857 27.1742 188.462 28.0489 188.389 28.9782C188.315 29.9076 188.568 30.8335 189.102 31.5967C190.306 33.3948 193.255 34.0385 194.953 32.7943C196.749 31.4817 197.543 28.1193 196.117 26.7707C194.803 25.5372 194.598 24.2031 194.709 22.6135C194.774 21.9015 194.731 21.1895 194.731 20.481Z" fill="url(#tailwind-gradient)"/>
  <path d="M194.729 20.4808C194.729 21.2 194.773 21.9193 194.729 22.6061C194.618 24.1957 194.823 25.5298 196.137 26.7633C197.574 28.1083 196.762 31.4743 194.974 32.7869C193.275 34.0311 190.326 33.3946 189.122 31.5894C188.588 30.8261 188.336 29.9002 188.409 28.9708C188.482 28.0415 188.877 27.1668 189.525 26.4972C190.168 25.7355 190.546 24.7851 190.602 23.7893C190.721 21.6711 190.548 19.5422 190.534 17.4169C190.524 16.8422 190.598 16.2692 190.753 15.7159C191.044 14.6946 191.788 14.1444 192.844 14.2774C193.9 14.4105 194.64 15.0326 194.64 16.2158C194.64 17.6363 194.64 19.0531 194.64 20.4736L194.729 20.4808ZM193.857 19.402H193.727C193.727 18.7798 193.727 18.1577 193.727 17.5356C193.752 16.6905 193.551 15.9784 192.556 15.9461C191.428 15.9137 191.479 16.8019 191.479 17.5499C191.443 19.8982 191.407 22.225 191.443 24.5876C191.461 25.7852 191.335 26.7633 190.258 27.612C189.18 28.4607 189.248 30.4889 190.258 31.7224C191.13 32.7833 193.232 33.2004 194.288 32.5243C194.695 32.2803 195.045 31.9508 195.313 31.5586C195.581 31.1664 195.761 30.7207 195.84 30.2521C195.92 29.7836 195.897 29.3034 195.773 28.8446C195.65 28.3857 195.428 27.9591 195.125 27.594C194.119 26.3821 193.878 25.0983 193.871 23.6382C193.864 22.1782 193.857 20.8009 193.857 19.384V19.402Z" fill="white"/>
  <path d="M193.856 19.3841C193.856 20.801 193.856 22.2215 193.856 23.6384C193.856 25.0552 194.103 26.3642 195.109 27.5941C195.413 27.9592 195.634 28.3858 195.758 28.8447C195.881 29.3035 195.904 29.7837 195.825 30.2522C195.745 30.7208 195.565 31.1665 195.297 31.5587C195.029 31.951 194.68 32.2804 194.272 32.5245C193.216 33.2005 191.115 32.7834 190.242 31.7225C189.236 30.5034 189.114 28.504 190.242 27.6121C191.37 26.7203 191.445 25.7853 191.427 24.5877C191.392 22.243 191.427 19.9127 191.463 17.5501C191.463 16.8021 191.424 15.9138 192.541 15.9462C193.536 15.9785 193.737 16.6906 193.712 17.5357C193.712 18.1578 193.712 18.7799 193.712 19.4021L193.856 19.3841ZM192.419 31.3773C194.014 31.3377 194.746 30.7983 194.754 29.6619C194.755 29.3975 194.701 29.1358 194.597 28.8929C194.493 28.65 194.34 28.4312 194.147 28.2501C193.955 28.0689 193.727 27.9294 193.479 27.84C193.23 27.7507 192.966 27.7135 192.703 27.7308C191.718 27.7739 190.576 28.7593 190.569 29.5756C190.582 30.0599 190.784 30.5197 191.132 30.8565C191.48 31.1933 191.946 31.3803 192.43 31.3773H192.419Z" fill="url(#tailwind-gradient)"/>
  <path d="M192.43 31.3794C191.948 31.3796 191.486 31.1919 191.141 30.8562C190.795 30.5205 190.594 30.0631 190.58 29.5814C190.58 28.765 191.729 27.7833 192.714 27.7365C192.977 27.7193 193.241 27.7565 193.49 27.8458C193.738 27.9351 193.966 28.0747 194.158 28.2558C194.351 28.4369 194.504 28.6558 194.608 28.8986C194.712 29.1415 194.766 29.4033 194.765 29.6677C194.757 30.7861 194.025 31.3399 192.43 31.3794Z" fill="white"/>
  <circle cx="77.5" cy="4.5" r="4.5" fill="#A2A5A9"/>
  <circle cx="218.5" cy="79.5" r="4.5" fill="#A2A5A9"/>
  <circle cx="37.5" cy="70.5" r="4.5" fill="url(#tailwind-gradient)"/>
  <circle cx="74" cy="52" r="5" fill="#B0B0B2"/>
  <circle cx="74" cy="52" r="4" fill="white"/>
  <circle cx="182" cy="77" r="5" fill="#B0B0B2"/>
  <circle cx="182" cy="77" r="4" fill="white"/>
  <circle cx="6.5" cy="79.5" r="4.5" fill="#A2A5A9"/>
  <path d="M184.5 18H182.5L172.5 33.5" stroke="url(#tailwind-gradient)" stroke-width="1.5"/>
  <path d="M127.355 202.01C123.387 202.104 119.019 202.335 114.662 202.27C112.011 202.234 109.364 201.786 106.727 201.454C104.358 201.215 102.003 200.853 99.6718 200.371C96.3272 199.636 93.0255 198.717 89.7818 197.619C85.9262 196.291 82.1476 194.749 78.4634 193C73.4498 190.537 68.6672 187.628 64.173 184.308C59.2474 180.803 54.687 176.811 50.5606 172.391C44.9999 166.401 40.1923 159.751 36.2449 152.591C35.8337 151.837 35.4081 151.118 36.5659 150.685C37.4496 150.352 38.1566 149.164 39.2026 150.908C41.9618 155.498 44.7896 160.088 48.0394 164.328C50.8636 168.015 54.1458 171.395 57.5075 174.612C64.8891 181.637 73.4191 187.342 82.7267 191.48C87.3874 193.521 92.2019 195.19 97.1254 196.471C102.032 197.772 107.043 198.64 112.101 199.063C115.87 199.406 119.701 199.233 123.492 199.063C126.798 198.961 130.095 198.643 133.36 198.11C136.943 197.472 140.481 196.606 143.953 195.517C147.777 194.329 151.503 192.816 155.257 191.404C156.552 190.913 156.837 191.798 157.281 192.654C157.725 193.509 157.486 194.058 156.675 194.347C152.228 195.94 147.809 197.63 143.297 199.024C140.093 199.954 136.842 200.715 133.558 201.302C131.65 201.681 129.685 201.757 127.355 202.01Z" fill="black"/>
  <path d="M14.2988 139.596L16.2826 139.336C17.1266 141.664 17.9682 143.987 18.8074 146.305C21.1771 152.842 24.4341 158.898 28.1059 164.759C30.1799 168.077 32.4342 171.291 34.6885 174.509C35.6083 175.809 36.7552 176.946 37.8048 178.149C38.9446 179.452 40.0122 180.828 41.253 182.027C44.3261 184.985 47.3847 187.967 50.6309 190.737C53.2134 192.97 55.9467 195.021 58.8113 196.876C63.2874 199.744 67.7744 202.683 72.5499 204.972C77.8664 207.5 83.4571 209.526 89.0405 211.451C92.6257 212.69 96.3841 213.502 100.117 214.232C102.974 214.791 105.906 214.983 108.813 215.239C111.721 215.495 114.584 215.777 117.47 215.77C121.239 215.77 125.008 215.513 128.774 215.304C130.454 215.212 132.128 215.024 133.787 214.741C136.994 214.199 140.215 213.693 143.367 212.913C147.097 211.989 150.794 210.888 154.451 209.699C160.944 207.591 167 204.471 172.846 200.953C174.989 199.664 177.074 198.277 179.216 196.981C180.255 196.356 180.828 197.097 181.496 197.992C179.876 199.126 178.372 200.347 176.713 201.296C172.962 203.441 169.178 205.529 165.333 207.497C160.486 210.011 155.388 212.008 150.123 213.455C146.779 214.358 143.45 215.337 140.071 216.077C137.644 216.604 135.183 216.952 132.705 217.12C127.075 217.514 121.437 218.012 115.804 217.98C111.392 217.951 106.97 217.301 102.581 216.705C99.1776 216.258 95.8048 215.603 92.4815 214.744C84.806 212.715 77.3326 210.075 70.3677 206.208C65.9565 203.756 61.5128 201.332 57.3 198.563C50.7852 194.237 44.8526 189.091 39.648 183.251C35.9473 179.149 32.4342 174.87 29.1519 170.41C25.1844 165.062 22.1005 159.168 19.3268 153.134C17.6496 149.48 16.2862 145.681 14.8254 141.94C14.5918 141.173 14.4158 140.389 14.2988 139.596Z" fill="#D7D9D8"/>
  <path d="M182.523 147.674L184.211 148.512C184.247 148.53 184.265 148.58 184.449 148.815C183.111 150.758 181.715 152.762 180.341 154.777C177.114 159.413 173.339 163.641 169.098 167.369C162.577 173.223 155.356 178.069 147.071 181.092C142.761 182.659 138.389 184.201 133.92 185.154C127.447 186.589 120.797 187.058 114.187 186.548C111.662 186.335 109.137 186.216 106.667 185.71C102.851 184.923 99.0526 183.984 95.3267 182.843C90.341 181.361 85.568 179.239 81.1264 176.531C78.0967 174.653 75.121 172.685 72.1814 170.673C68.0443 167.842 64.5348 164.278 61.2453 160.562C58.4753 157.424 56.0911 153.95 53.5555 150.606C52.9784 149.848 53.6565 149.566 54.1398 149.162C54.7169 148.674 55.0307 148.844 55.4275 149.371C58.1975 153.04 60.8378 156.835 63.8243 160.306C66.0497 162.877 68.6755 165.137 71.3085 167.319C76.6088 171.731 82.5193 175.352 88.856 178.069C92.7603 179.698 96.7708 181.059 100.86 182.142C108.64 184.277 116.528 184.562 124.47 184.259C127.316 184.147 130.166 183.565 132.957 182.951C136.499 182.168 140.038 181.279 143.489 180.171C149.408 178.226 155.001 175.402 160.081 171.793C164.6 168.64 168.983 165.253 172.568 161.042C175.54 157.55 178.155 153.755 180.907 150.079C181.466 149.331 181.946 148.537 182.523 147.674Z" fill="#D7D9D8"/>
  <path d="M33.8516 191.48L35.132 189.855C58.4228 213.297 86.5564 225.334 119.533 225.967C119.576 226.581 119.605 227.004 119.656 227.708C108.835 228.069 98.375 226.599 88.0268 223.735C77.8398 220.87 68.0659 216.697 58.9482 211.32C49.7205 205.88 41.2771 199.205 33.8516 191.48Z" fill="#D7D9D8"/>
  <path d="M194.278 157.553C196.803 159.225 196.774 159.199 195.18 161.586C190.833 168.086 185.607 173.825 179.89 179.101C177.239 181.545 174.209 183.582 171.234 185.911C170.703 185.189 170.364 184.622 169.939 184.145C169.311 183.423 169.61 183.03 170.238 182.531C173.326 180.086 176.536 177.772 179.41 175.092C184.737 170.182 189.439 164.633 193.409 158.571C193.673 158.211 193.964 157.871 194.278 157.553Z" fill="black"/>
  <path d="M7.3657 144.775C8.25299 146.899 9.14389 148.964 9.98429 151.052C13.0274 158.733 16.8682 166.072 21.4433 172.95C23.4956 176.008 25.685 178.98 27.9105 181.916C28.6318 182.88 28.7004 183.44 27.337 183.971C27.0304 183.635 26.6156 183.249 26.2838 182.812C18.7872 173.374 12.6912 162.902 8.18446 151.72C7.5244 150.077 6.97976 148.383 6.23675 146.78C5.71736 145.66 6.03476 145.133 7.3657 144.775Z" fill="#D7D9D8"/>
  <path d="M187.446 192.963C187.15 192.681 186.749 192.454 186.609 192.118C186.551 191.949 186.533 191.768 186.557 191.591C186.581 191.413 186.646 191.244 186.746 191.096C187.435 190.345 188.235 189.702 188.96 188.98C192.239 185.73 195.662 182.61 198.721 179.168C201.354 176.204 203.554 172.856 205.985 169.714C206.429 169.14 206.879 167.945 207.879 169.108C208.117 169.386 208.239 170.097 208.055 170.353C206.317 172.795 204.557 175.225 202.699 177.576C200.423 180.465 198.046 183.263 195.713 186.105C195.658 186.175 195.598 186.241 195.532 186.3C193.161 188.366 190.788 190.427 188.412 192.483C188.108 192.677 187.784 192.838 187.446 192.963Z" fill="#D7D9D8"/>
  <path d="M217.827 148.646C219.692 148.831 219.973 149.12 219.4 150.687C218.743 152.492 217.914 154.208 217.113 155.945C216.752 156.732 216.139 157.068 215.273 156.624C214.408 156.179 214.761 155.479 215.006 154.905C215.905 152.796 216.875 150.708 217.827 148.646Z" fill="#D7D9D8"/>
  <path d="M201.06 151.399C200.28 151.009 199.696 150.705 199.101 150.42C198.38 150.059 198.322 149.503 198.661 148.871C199.184 147.907 199.743 146.964 200.327 145.953L203.213 147.343L201.06 151.399Z" fill="black"/>
  <circle cx="163.5" cy="186.836" r="5.5" fill="black"/>
  <circle cx="163.5" cy="186.836" r="4.4" fill="white"/>
  <circle cx="124" cy="227.336" r="5" fill="#A2A5A9"/>
  <circle cx="31" cy="187.336" r="5" fill="#A2A5A9"/>
  <circle cx="5" cy="141.336" r="5" fill="#D8D8D8"/>
  <circle cx="203.5" cy="141.836" r="5.5" fill="black"/>
  <circle cx="220.5" cy="142.836" r="4.5" fill="#A2A5A9"/>
  <circle cx="185" cy="142.336" r="5" fill="#B0B0B2"/>
  <circle cx="185" cy="142.336" r="4" fill="white"/>
  <circle cx="214" cy="163.336" r="5" fill="url(#tailwind-gradient)"/>
  <circle cx="214" cy="163.336" r="4" fill="white"/>
  <path d="M190.5 148.836L208 159.336" stroke="url(#tailwind-gradient)" stroke-width="1.5"/>
  <path d="M177.5 182.836L189.5 199.336H192" stroke="url(#tailwind-gradient)" stroke-width="1.5"/>
  <path d="M206 196.836L209.5 189.836V194.836L212.5 195.336L209 201.336V196.836H206Z" stroke="url(#tailwind-gradient)" stroke-width="1.5"/>
  <path d="M31 154.336L32.5 140.336L44.5 147.836L31 154.336Z" fill="black"/>
  <path d="M200.786 200.36C200.786 201.158 200.822 201.96 200.786 202.755C200.707 204.118 200.919 205.218 202.036 206.283C204.212 208.361 202.786 213.187 199.64 214.396C197.215 215.327 194.69 214.737 193.203 212.795C192.419 211.825 191.994 210.613 192 209.364C192.006 208.116 192.442 206.908 193.236 205.945C194.313 204.654 194.601 203.409 194.374 201.708C194.167 199.662 194.212 197.598 194.507 195.563C194.614 194.807 195.006 194.121 195.602 193.646C196.199 193.171 196.955 192.943 197.715 193.009C198.516 193.063 199.269 193.407 199.835 193.977C200.401 194.547 200.74 195.304 200.789 196.106C200.861 197.519 200.789 198.943 200.789 200.36H200.786ZM199.651 200.518H199.539C199.539 199.098 199.539 197.681 199.539 196.26C199.539 195.077 198.821 194.462 197.743 194.322C196.666 194.182 195.947 194.732 195.653 195.76C195.498 196.314 195.424 196.887 195.434 197.461C195.434 199.587 195.621 201.716 195.502 203.834C195.446 204.83 195.068 205.78 194.424 206.542C193.777 207.211 193.382 208.086 193.309 209.015C193.235 209.945 193.488 210.871 194.022 211.634C195.225 213.432 198.174 214.076 199.873 212.831C201.669 211.519 202.463 208.156 201.037 206.808C199.723 205.574 199.518 204.24 199.629 202.651C199.694 201.939 199.651 201.227 199.651 200.518Z" fill="url(#tailwind-gradient)"/>
  <path d="M198.776 199.421C198.776 200.838 198.776 202.259 198.776 203.675C198.776 205.092 199.023 206.401 200.029 207.631C200.333 207.996 200.554 208.423 200.678 208.882C200.801 209.341 200.824 209.821 200.745 210.289C200.665 210.758 200.485 211.204 200.217 211.596C199.949 211.988 199.599 212.318 199.192 212.562C198.136 213.238 196.035 212.82 195.162 211.76C194.156 210.541 194.034 208.541 195.162 207.649C196.29 206.757 196.365 205.822 196.347 204.625C196.311 202.28 196.347 199.95 196.383 197.587C196.383 196.839 196.344 195.951 197.461 195.983C198.456 196.016 198.657 196.728 198.632 197.573C198.632 198.195 198.632 198.817 198.632 199.439L198.776 199.421ZM197.339 211.414C198.934 211.375 199.666 210.835 199.673 209.699C199.675 209.435 199.621 209.173 199.517 208.93C199.413 208.687 199.26 208.468 199.067 208.287C198.875 208.106 198.647 207.966 198.399 207.877C198.15 207.788 197.886 207.751 197.623 207.768C196.638 207.811 195.496 208.796 195.489 209.613C195.502 210.097 195.704 210.557 196.052 210.894C196.4 211.23 196.866 211.417 197.35 211.414H197.339Z" fill="url(#tailwind-gradient)"/>
</svg>