<?xml version="1.0" standalone="no"?>
<!DOCTYPE svg PUBLIC "-//W3C//DTD SVG 20010904//EN"
 "http://www.w3.org/TR/2001/REC-SVG-20010904/DTD/svg10.dtd">
<svg version="1.0" xmlns="http://www.w3.org/2000/svg"
 width="300.000000pt" height="300.000000pt" viewBox="0 0 300.000000 300.000000"
 preserveAspectRatio="xMidYMid meet">
<defs>
  <!-- Blue gradient fill -->
  <linearGradient id="gradBlue" x1="0%" y1="0%" x2="100%" y2="100%">
    <stop offset="0%" stop-color="#2563EB" />        <!-- Tailwind Blue-600 -->
    <stop offset="100%" stop-color="#1E40AF" />      <!-- Tailwind Blue-800 -->
  </linearGradient>

  <!-- Soft glow filter -->
  <filter id="glow" x="-50%" y="-50%" width="200%" height="200%">
    <feGaussianBlur stdDeviation="4" result="blur"/>
    <feMerge>
      <feMergeNode in="blur"/>
      <feMergeNode in="SourceGraphic"/>
    </feMerge>
  </filter>
</defs>

<g transform="translate(0.000000,300.000000) scale(0.100000,-0.100000)"
fill="url(#gradBlue)" stroke="none" filter="url(#glow)">
<path d="M1441 2055 c-139 -39 -268 -145 -331 -270 -33 -67 -34 -75 -35 -180
0 -105 2 -114 33 -177 54 -111 159 -201 271 -234 74 -22 171 -33 196 -23 18 7
18 8 -5 10 -168 14 -300 104 -350 237 -18 48 -21 73 -18 157 3 91 7 107 40
176 102 210 329 315 539 250 93 -29 53 1 -46 35 -98 33 -215 41 -294 19z m68
-24 c10 -7 6 -10 -16 -15 -48 -11 -146 -77 -194 -131 -133 -150 -168 -386 -79
-530 17 -27 18 -33 5 -31 -16 2 -44 26 -31 26 5 0 -3 9 -17 20 -14 11 -37 45
-51 75 -65 143 -28 322 92 442 29 29 55 53 58 53 3 0 22 13 42 29 20 16 64 39
97 50 68 23 75 24 94 12z"/>
<path d="M1575 1893 c-99 -22 -179 -82 -214 -163 -50 -117 -32 -229 56 -338
41 -50 57 -50 20 0 -45 60 -57 94 -57 160 0 199 241 330 436 238 61 -29 113
-80 143 -138 7 -13 15 -22 17 -19 3 3 -8 31 -24 63 -51 101 -126 162 -227 189
-57 14 -108 17 -150 8z m106 -34 c11 -7 9 -9 -6 -10 -88 -4 -202 -58 -246
-118 -13 -18 -28 -30 -35 -27 -6 2 -11 -3 -10 -11 0 -9 -5 -18 -12 -20 -18 -7
13 68 35 85 9 6 13 12 8 12 -18 0 42 48 91 73 50 25 146 34 175 16z"/>
<path d="M987 1758 c-65 -172 -74 -287 -34 -426 62 -212 254 -398 455 -441
180 -38 344 11 476 142 80 80 116 137 152 244 27 81 41 230 25 278 -8 27 -9
25 -10 -25 -4 -184 -111 -369 -254 -437 -80 -39 -101 -44 -181 -50 -251 -16
-495 137 -584 367 -48 123 -53 276 -12 383 23 60 23 57 11 57 -4 0 -24 -42
-44 -92z m-7 -270 c0 -54 98 -236 158 -294 51 -49 159 -113 238 -141 68 -23
96 -27 194 -27 97 -1 124 3 173 22 99 38 126 54 187 114 15 15 30 24 33 21 25
-24 -128 -183 -220 -230 -154 -78 -348 -66 -493 30 -63 42 -155 133 -195 192
-32 47 -79 145 -70 145 2 0 -2 15 -10 33 -12 30 -17 92 -14 166 1 33 19 5 19
-31z"/>
</g>
</svg>
